<?xml version="1.0" encoding="utf-8"?>
<svg version="1.1" xmlns:xlink="http://www.w3.org/1999/xlink" width="17px" height="12px" xmlns="http://www.w3.org/2000/svg">
  <g transform="matrix(1 0 0 1 -449 -258 )">
    <path d="M 16.829250064247766 6.491715187705221  C 16.829250064247766 6.099952575076026  16.522597827616945 5.781080956671438  16.14141414141414 5.7764705955882345  C 15.764129020757611 5.781539599269816  15.459477919407329 6.094623949100386  15.454545454545453 6.482352948529412  L 15.454545454545453 9.644705889705882  L 9.675690228535354 3.7058823529411766  C 9.407520625052761 3.430632124561127  8.9730854355533 3.430632124561127  8.704915832070707 3.7058823529411766  L 6.607676767676767 5.870588227941177  L 1.2592592664141407 0.3835294191176468  C 1.1293352609525384 0.24023777241623068  0.9473205286436667 0.15886273649690122  0.7567384916586499 0.15886273649690122  C 0.3773913907647718 0.15886273649690122  0.06986980478996316 0.47489703073398837  0.06986980478996316 0.8647450894380777  C 0.06986980478996316 1.0606027483166287  0.14905291617552893 1.2476559460437655  0.2884848484848478 1.3811764632352943  L 6.122289569444445 7.3670588161764705  C 6.1829126715194915 7.436703080231916  6.258043872586249 7.491394180152856  6.342087549242426 7.527058830882353  C 6.510192443270643 7.592925445906991  6.69600285723441 7.592925445906991  6.864107751262627 7.527058830882353  C 6.950856065303723 7.49150132746105  7.028997016984122 7.436894583384238  7.093063965909091 7.3670588161764705  L 9.190303030303033 5.211764713235295  L 14.30976431691919 10.482352941176472  L 11.562289569444443 10.482352941176472  C 11.182942468550566 10.482352941176472  10.875420882575758 10.798387235413559  10.875420882575758 11.188235294117648  C 10.875420882575758 11.578083352821738  11.182942468550566 11.894117647058824  11.562289569444443 11.894117647058824  L 16.14141414141414 11.894117647058824  C 16.518699262070665 11.889048643377246  16.823350363420953 11.575964293546672  16.82828282828283 11.188235294117648  L 16.828282828282827 6.529411764705882  C 16.828927540210323 6.5168571579257675  16.829250064247766 6.504287265311335  16.829250064247766 6.491715187705221  Z " fill-rule="nonzero" fill="#70b603" stroke="none" transform="matrix(1 0 0 1 449 258 )" />
  </g>
</svg>