<?xml version="1.0" encoding="utf-8"?>
<svg version="1.1" xmlns:xlink="http://www.w3.org/1999/xlink" width="16px" height="12px" xmlns="http://www.w3.org/2000/svg">
  <g transform="matrix(1 0 0 1 -874 -257 )">
    <path d="M 15.738559135388115 0.17942669238790773  C 15.729822999390205 0.17942669238790773  15.72110442410067 0.1802270539454337  15.712507933333333 0.18181818181818182  L 11.917206355555557 0.6472727272727277  C 11.841095640598946 0.6583472717206756  11.784543290339242 0.7249960178525922  11.784543290339242 0.8036203753206002  C 11.784543290339242 0.8445133286665523  11.800053278311546 0.8838119512198648  11.827809533333333 0.9132467500000002  L 12.957460311111113 2.0270129772727277  L 8.658285711111112 6.432207795454547  L 6.7159365111111144 4.445714295454548  C 6.596052421326093 4.326414837872353  6.405090445340578 4.326414837872353  6.285206355555557 4.445714295454547  L 0.15746031111111292 10.712727272727275  C 0.10064027927226801 10.77624670846322  0.10064027927226801 10.873623427900425  0.15746031111111228 10.937142863636366  L 1.0189206444444443 11.818181818181817  C 1.0783282473668325 11.875184411979733  1.1708146192998343 11.875184411979733  1.2302222222222219 11.818181818181818  L 6.504634911111111 6.432207795454547  L 8.438857133333332 8.410389613636363  C 8.560378960553024 8.525492016367515  8.748065483891422 8.525492016367515  8.869587311111111 8.410389613636363  L 14.0383492 3.1241558409090904  L 15.168000000000001 4.2794805227272725  C 15.196780692140578 4.307867601726829  15.235206011970483 4.323730089425775  15.27519023301986 4.323730089425775  C 15.352067382544131 4.323730089425775  15.417235045428674 4.265892458478353  15.42806348888889 4.188051954545455  L 15.883174599999998 0.3064935000000007  C 15.872283379980098 0.2334152594355898  15.81083868128927 0.17942669238790773  15.738559135388115 0.17942669238790773  Z " fill-rule="nonzero" fill="#d9001b" stroke="none" transform="matrix(1 0 0 1 874 257 )" />
  </g>
</svg>